<?xml version="1.0" encoding="UTF-8" standalone="no"?>
<!DOCTYPE svg PUBLIC "-//W3C//DTD SVG 1.1//EN" "http://www.w3.org/Graphics/SVG/1.1/DTD/svg11.dtd">
<svg xmlns="http://www.w3.org/2000/svg" version="1.1" viewBox="0.00 0.00 250.00 250.00">
<g stroke-width="2.00" fill="none" stroke-linecap="butt">
<path stroke="#e3873c" vector-effect="non-scaling-stroke" d="
  M 196.93 64.71
  L 196.37 65.75
  Q 196.18 66.10 195.77 66.10
  L 127.89 66.10
  Q 127.52 66.10 127.20 65.90
  Q 127.03 65.79 126.95 65.61
  Q 126.73 65.09 126.16 65.09
  L 52.43 65.26"
/>
<path stroke="#e37d34" vector-effect="non-scaling-stroke" d="
  M 213.52 93.95
  L 151.70 94.19
  Q 151.51 94.19 151.41 94.35
  Q 151.34 94.47 151.34 94.61
  Q 151.33 95.29 151.94 94.96
  Q 152.27 94.78 152.67 94.75
  Q 153.58 94.68 152.97 95.36
  Q 152.76 95.59 152.79 95.96"
/>
<path stroke="#f1c19c" vector-effect="non-scaling-stroke" d="
  M 152.79 95.96
  Q 140.12 89.96 128.62 97.52"
/>
<path stroke="#e37d34" vector-effect="non-scaling-stroke" d="
  M 128.62 97.52
  L 128.65 96.78
  A 1.30 1.30 0.0 0 1 129.25 95.72
  Q 130.54 94.88 132.08 94.54
  Q 132.62 94.43 132.15 94.15
  Q 131.98 94.04 131.75 94.05
  Q 129.54 94.15 127.22 93.70"
/>
<path stroke="#f1c19c" vector-effect="non-scaling-stroke" d="
  M 127.22 93.70
  Q 128.67 88.98 127.84 83.30
  A 1.67 1.66 77.3 0 0 125.71 81.94
  Q 115.15 85.18 115.14 96.12"
/>
<path stroke="#e37d34" vector-effect="non-scaling-stroke" d="
  M 115.14 96.12
  L 114.73 95.24"
/>
<path stroke="#f1c19c" vector-effect="non-scaling-stroke" d="
  M 114.73 95.24
  Q 114.88 86.20 106.15 82.25
  Q 104.27 81.40 103.64 83.37
  Q 102.02 88.49 103.23 93.80"
/>
<path stroke="#e37d34" vector-effect="non-scaling-stroke" d="
  M 103.23 93.80
  L 97.01 94.01
  A 0.70 0.70 0.0 0 0 96.45 94.32
  Q 96.26 94.60 96.43 94.62
  Q 97.29 94.68 96.88 95.46
  Q 96.76 95.69 96.73 95.97"
/>
<path stroke="#f1c19c" vector-effect="non-scaling-stroke" d="
  M 96.73 95.97
  Q 95.01 94.36 93.29 92.76
  Q 91.04 90.67 89.36 90.48
  Q 86.27 90.14 84.68 93.94"
/>
<path stroke="#e37d34" vector-effect="non-scaling-stroke" d="
  M 84.68 93.94
  L 36.29 93.95"
/>
<path stroke="#f1bb98" vector-effect="non-scaling-stroke" d="
  M 127.22 93.70
  Q 124.58 99.95 117.95 101.21
  Q 115.95 101.58 115.65 99.57
  L 115.14 96.12"
/>
<path stroke="#f1bb98" vector-effect="non-scaling-stroke" d="
  M 96.73 95.97
  Q 104.95 103.13 114.85 105.49
  Q 115.45 105.64 115.20 106.19
  Q 113.66 109.58 113.48 113.57
  Q 113.46 114.15 112.88 114.04
  Q 107.81 113.01 102.73 110.40
  A 0.39 0.39 0.0 0 0 102.16 110.80
  L 103.06 117.53
  Q 103.13 118.05 102.65 118.25
  Q 98.84 119.73 95.74 122.22
  Q 95.13 122.71 94.96 121.95
  Q 93.08 113.48 93.58 105.16
  A 0.90 0.89 19.8 0 0 93.21 104.38
  Q 89.51 101.69 85.93 97.81
  Q 84.40 96.14 84.68 93.94"
/>
<path stroke="#e3722c" vector-effect="non-scaling-stroke" d="
  M 218.63 119.70
  Q 218.25 120.87 217.59 121.72
  Q 217.28 122.11 216.78 122.11
  L 164.10 122.14"
/>
<path stroke="#e3722c" vector-effect="non-scaling-stroke" d="
  M 120.74 124.94
  Q 119.78 124.82 118.73 125.04
  Q 118.46 125.09 118.66 125.27
  Q 118.77 125.37 118.67 125.59
  Q 118.59 125.78 118.37 125.80
  Q 117.94 125.82 117.67 125.53
  Q 117.02 124.84 116.96 125.78
  Q 116.92 126.49 116.45 127.10
  Q 116.28 127.32 116.39 127.57
  Q 116.51 127.85 116.61 127.74
  Q 116.87 127.46 116.95 127.83
  Q 117.11 128.54 116.56 129.50"
/>
<path stroke="#f1bb98" vector-effect="non-scaling-stroke" d="
  M 116.56 129.50
  L 113.80 122.29
  Q 113.63 121.83 113.14 121.84
  Q 106.17 122.01 100.18 125.98"
/>
<path stroke="#e3722c" vector-effect="non-scaling-stroke" d="
  M 100.18 125.98
  Q 100.65 125.17 100.72 124.55
  A 0.61 0.61 0.0 0 0 100.11 123.87
  Q 65.38 123.91 34.16 123.87
  C 33.62 123.87 32.80 123.56 32.29 123.33
  Q 32.08 123.24 31.96 123.42
  Q 31.85 123.58 31.97 123.74
  A 0.07 0.07 0.0 0 1 31.91 123.86
  Q 31.39 123.85 31.06 123.18"
/>
<path stroke="#f1bb98" vector-effect="non-scaling-stroke" d="
  M 152.79 95.96
  Q 167.45 105.10 164.10 122.14"
/>
<path stroke="#f1b694" vector-effect="non-scaling-stroke" d="
  M 164.10 122.14
  C 157.56 142.84 129.81 145.38 120.74 124.94"
/>
<path stroke="#f1bb98" vector-effect="non-scaling-stroke" d="
  M 120.74 124.94
  C 116.76 114.47 119.81 104.34 128.62 97.52"
/>
<path stroke="#f1bb98" vector-effect="non-scaling-stroke" d="
  M 114.73 95.24
  Q 114.49 96.66 113.77 99.01
  Q 112.93 101.72 110.41 100.73
  Q 105.19 98.67 103.23 93.80"
/>
<path stroke="#e46522" vector-effect="non-scaling-stroke" d="
  M 214.70 152.25
  L 163.64 151.95"
/>
<path stroke="#f1b694" vector-effect="non-scaling-stroke" d="
  M 163.64 151.95
  Q 166.28 143.15 163.00 136.25
  Q 162.76 135.74 162.36 136.14
  Q 153.99 144.45 142.45 144.74
  Q 141.87 144.75 141.86 145.33
  Q 141.73 151.20 139.47 156.29"
/>
<path stroke="#e46522" vector-effect="non-scaling-stroke" d="
  M 139.47 156.29
  Q 138.99 156.24 139.28 155.26
  Q 139.52 154.46 139.02 155.13
  Q 138.95 155.21 138.93 155.32
  Q 138.81 156.09 138.20 155.62
  Q 137.23 154.86 136.05 154.82
  Q 135.53 154.80 135.18 154.50
  Q 135.11 154.43 135.15 154.35
  Q 135.57 153.52 134.77 153.98
  Q 134.48 154.15 134.23 154.04"
/>
<path stroke="#f1b694" vector-effect="non-scaling-stroke" d="
  M 134.23 154.04
  Q 136.24 149.55 136.08 144.71
  Q 136.07 144.21 135.58 144.09
  Q 122.93 140.95 116.56 129.50"
/>
<path stroke="#e46522" vector-effect="non-scaling-stroke" d="
  M 90.76 140.20
  L 35.00 140.13
  A 1.04 1.03 -87.3 0 0 33.97 141.07
  Q 33.89 141.91 33.07 141.97
  A 0.42 0.40 -12.7 0 1 32.66 141.72
  L 32.48 141.30"
/>
<path stroke="#f2ae8e" vector-effect="non-scaling-stroke" d="
  M 134.23 154.04
  C 128.68 166.23 114.43 171.24 102.51 164.84
  Q 89.04 157.61 90.76 140.20"
/>
<path stroke="#f1b694" vector-effect="non-scaling-stroke" d="
  M 90.76 140.20
  Q 92.85 131.52 100.18 125.98"
/>
<path stroke="#f2ae8e" vector-effect="non-scaling-stroke" d="
  M 163.64 151.95
  Q 160.84 160.79 152.51 165.04
  Q 143.03 169.86 133.31 165.97
  A 0.42 0.41 -55.8 0 1 133.18 165.28
  Q 137.26 161.38 139.47 156.29"
/>
</g>
<path fill="#e38b3f" d="
  M 196.93 64.71
  L 196.37 65.75
  Q 196.18 66.10 195.77 66.10
  L 127.89 66.10
  Q 127.52 66.10 127.20 65.90
  Q 127.03 65.79 126.95 65.61
  Q 126.73 65.09 126.16 65.09
  L 52.43 65.26
  A 93.99 93.93 -86.1 0 1 75.55 45.07
  A 93.91 93.85 -56.4 0 1 139.49 32.18
  A 93.89 93.87 -15.5 0 1 196.93 64.71
  Z"
/>
<path fill="#e38238" d="
  M 196.93 64.71
  A 94.07 93.97 -74.6 0 1 213.52 93.95
  L 151.70 94.19
  Q 151.51 94.19 151.41 94.35
  Q 151.34 94.47 151.34 94.61
  Q 151.33 95.29 151.94 94.96
  Q 152.27 94.78 152.67 94.75
  Q 153.58 94.68 152.97 95.36
  Q 152.76 95.59 152.79 95.96
  Q 140.12 89.96 128.62 97.52
  L 128.65 96.78
  A 1.30 1.30 0.0 0 1 129.25 95.72
  Q 130.54 94.88 132.08 94.54
  Q 132.62 94.43 132.15 94.15
  Q 131.98 94.04 131.75 94.05
  Q 129.54 94.15 127.22 93.70
  Q 128.67 88.98 127.84 83.30
  A 1.67 1.66 77.3 0 0 125.71 81.94
  Q 115.15 85.18 115.14 96.12
  L 114.73 95.24
  Q 114.88 86.20 106.15 82.25
  Q 104.27 81.40 103.64 83.37
  Q 102.02 88.49 103.23 93.80
  L 97.01 94.01
  A 0.70 0.70 0.0 0 0 96.45 94.32
  Q 96.26 94.60 96.43 94.62
  Q 97.29 94.68 96.88 95.46
  Q 96.76 95.69 96.73 95.97
  Q 95.01 94.36 93.29 92.76
  Q 91.04 90.67 89.36 90.48
  Q 86.27 90.14 84.68 93.94
  L 36.29 93.95
  A 94.04 94.03 74.4 0 1 52.43 65.26
  L 126.16 65.09
  Q 126.73 65.09 126.95 65.61
  Q 127.03 65.79 127.20 65.90
  Q 127.52 66.10 127.89 66.10
  L 195.77 66.10
  Q 196.18 66.10 196.37 65.75
  L 196.93 64.71
  Z"
/>
<path fill="#ffffff" d="
  M 127.22 93.70
  Q 124.58 99.95 117.95 101.21
  Q 115.95 101.58 115.65 99.57
  L 115.14 96.12
  Q 115.15 85.18 125.71 81.94
  A 1.67 1.66 77.3 0 1 127.84 83.30
  Q 128.67 88.98 127.22 93.70
  Z"
/>
<path fill="#ffffff" d="
  M 114.73 95.24
  Q 114.49 96.66 113.77 99.01
  Q 112.93 101.72 110.41 100.73
  Q 105.19 98.67 103.23 93.80
  Q 102.02 88.49 103.64 83.37
  Q 104.27 81.40 106.15 82.25
  Q 114.88 86.20 114.73 95.24
  Z"
/>
<path fill="#ffffff" d="
  M 96.73 95.97
  Q 104.95 103.13 114.85 105.49
  Q 115.45 105.64 115.20 106.19
  Q 113.66 109.58 113.48 113.57
  Q 113.46 114.15 112.88 114.04
  Q 107.81 113.01 102.73 110.40
  A 0.39 0.39 0.0 0 0 102.16 110.80
  L 103.06 117.53
  Q 103.13 118.05 102.65 118.25
  Q 98.84 119.73 95.74 122.22
  Q 95.13 122.71 94.96 121.95
  Q 93.08 113.48 93.58 105.16
  A 0.90 0.89 19.8 0 0 93.21 104.38
  Q 89.51 101.69 85.93 97.81
  Q 84.40 96.14 84.68 93.94
  Q 86.27 90.14 89.36 90.48
  Q 91.04 90.67 93.29 92.76
  Q 95.01 94.36 96.73 95.97
  Z"
/>
<path fill="#ffffff" d="
  M 152.79 95.96
  Q 167.45 105.10 164.10 122.14
  C 157.56 142.84 129.81 145.38 120.74 124.94
  C 116.76 114.47 119.81 104.34 128.62 97.52
  Q 140.12 89.96 152.79 95.96
  Z"
/>
<path fill="#e37730" d="
  M 36.29 93.95
  L 84.68 93.94
  Q 84.40 96.14 85.93 97.81
  Q 89.51 101.69 93.21 104.38
  A 0.90 0.89 19.8 0 1 93.58 105.16
  Q 93.08 113.48 94.96 121.95
  Q 95.13 122.71 95.74 122.22
  Q 98.84 119.73 102.65 118.25
  Q 103.13 118.05 103.06 117.53
  L 102.16 110.80
  A 0.39 0.39 0.0 0 1 102.73 110.40
  Q 107.81 113.01 112.88 114.04
  Q 113.46 114.15 113.48 113.57
  Q 113.66 109.58 115.20 106.19
  Q 115.45 105.64 114.85 105.49
  Q 104.95 103.13 96.73 95.97
  Q 96.76 95.69 96.88 95.46
  Q 97.29 94.68 96.43 94.62
  Q 96.26 94.60 96.45 94.32
  A 0.70 0.70 0.0 0 1 97.01 94.01
  L 103.23 93.80
  Q 105.19 98.67 110.41 100.73
  Q 112.93 101.72 113.77 99.01
  Q 114.49 96.66 114.73 95.24
  L 115.14 96.12
  L 115.65 99.57
  Q 115.95 101.58 117.95 101.21
  Q 124.58 99.95 127.22 93.70
  Q 129.54 94.15 131.75 94.05
  Q 131.98 94.04 132.15 94.15
  Q 132.62 94.43 132.08 94.54
  Q 130.54 94.88 129.25 95.72
  A 1.30 1.30 0.0 0 0 128.65 96.78
  L 128.62 97.52
  C 119.81 104.34 116.76 114.47 120.74 124.94
  Q 119.78 124.82 118.73 125.04
  Q 118.46 125.09 118.66 125.27
  Q 118.77 125.37 118.67 125.59
  Q 118.59 125.78 118.37 125.80
  Q 117.94 125.82 117.67 125.53
  Q 117.02 124.84 116.96 125.78
  Q 116.92 126.49 116.45 127.10
  Q 116.28 127.32 116.39 127.57
  Q 116.51 127.85 116.61 127.74
  Q 116.87 127.46 116.95 127.83
  Q 117.11 128.54 116.56 129.50
  L 113.80 122.29
  Q 113.63 121.83 113.14 121.84
  Q 106.17 122.01 100.18 125.98
  Q 100.65 125.17 100.72 124.55
  A 0.61 0.61 0.0 0 0 100.11 123.87
  Q 65.38 123.91 34.16 123.87
  C 33.62 123.87 32.80 123.56 32.29 123.33
  Q 32.08 123.24 31.96 123.42
  Q 31.85 123.58 31.97 123.74
  A 0.07 0.07 0.0 0 1 31.91 123.86
  Q 31.39 123.85 31.06 123.18
  A 93.84 93.66 -34.9 0 1 36.29 93.95
  Z"
/>
<path fill="#e37730" d="
  M 213.52 93.95
  A 94.11 93.87 -56.3 0 1 218.63 119.70
  Q 218.25 120.87 217.59 121.72
  Q 217.28 122.11 216.78 122.11
  L 164.10 122.14
  Q 167.45 105.10 152.79 95.96
  Q 152.76 95.59 152.97 95.36
  Q 153.58 94.68 152.67 94.75
  Q 152.27 94.78 151.94 94.96
  Q 151.33 95.29 151.34 94.61
  Q 151.34 94.47 151.41 94.35
  Q 151.51 94.19 151.70 94.19
  L 213.52 93.95
  Z"
/>
<path fill="#e36d28" d="
  M 218.63 119.70
  A 93.99 93.88 -38.1 0 1 214.70 152.25
  L 163.64 151.95
  Q 166.28 143.15 163.00 136.25
  Q 162.76 135.74 162.36 136.14
  Q 153.99 144.45 142.45 144.74
  Q 141.87 144.75 141.86 145.33
  Q 141.73 151.20 139.47 156.29
  Q 138.99 156.24 139.28 155.26
  Q 139.52 154.46 139.02 155.13
  Q 138.95 155.21 138.93 155.32
  Q 138.81 156.09 138.20 155.62
  Q 137.23 154.86 136.05 154.82
  Q 135.53 154.80 135.18 154.50
  Q 135.11 154.43 135.15 154.35
  Q 135.57 153.52 134.77 153.98
  Q 134.48 154.15 134.23 154.04
  Q 136.24 149.55 136.08 144.71
  Q 136.07 144.21 135.58 144.09
  Q 122.93 140.95 116.56 129.50
  Q 117.11 128.54 116.95 127.83
  Q 116.87 127.46 116.61 127.74
  Q 116.51 127.85 116.39 127.57
  Q 116.28 127.32 116.45 127.10
  Q 116.92 126.49 116.96 125.78
  Q 117.02 124.84 117.67 125.53
  Q 117.94 125.82 118.37 125.80
  Q 118.59 125.78 118.67 125.59
  Q 118.77 125.37 118.66 125.27
  Q 118.46 125.09 118.73 125.04
  Q 119.78 124.82 120.74 124.94
  C 129.81 145.38 157.56 142.84 164.10 122.14
  L 216.78 122.11
  Q 217.28 122.11 217.59 121.72
  Q 218.25 120.87 218.63 119.70
  Z"
/>
<path fill="#ffffff" d="
  M 116.56 129.50
  Q 122.93 140.95 135.58 144.09
  Q 136.07 144.21 136.08 144.71
  Q 136.24 149.55 134.23 154.04
  C 128.68 166.23 114.43 171.24 102.51 164.84
  Q 89.04 157.61 90.76 140.20
  Q 92.85 131.52 100.18 125.98
  Q 106.17 122.01 113.14 121.84
  Q 113.63 121.83 113.80 122.29
  L 116.56 129.50
  Z"
/>
<path fill="#e36d28" d="
  M 31.06 123.18
  Q 31.39 123.85 31.91 123.86
  A 0.07 0.07 0.0 0 0 31.97 123.74
  Q 31.85 123.58 31.96 123.42
  Q 32.08 123.24 32.29 123.33
  C 32.80 123.56 33.62 123.87 34.16 123.87
  Q 65.38 123.91 100.11 123.87
  A 0.61 0.61 0.0 0 1 100.72 124.55
  Q 100.65 125.17 100.18 125.98
  Q 92.85 131.52 90.76 140.20
  L 35.00 140.13
  A 1.04 1.03 -87.3 0 0 33.97 141.07
  Q 33.89 141.91 33.07 141.97
  A 0.42 0.40 -12.7 0 1 32.66 141.72
  L 32.48 141.30
  A 94.05 93.94 -49.5 0 1 31.06 123.18
  Z"
/>
<path fill="#ffffff" d="
  M 163.64 151.95
  Q 160.84 160.79 152.51 165.04
  Q 143.03 169.86 133.31 165.97
  A 0.42 0.41 -55.8 0 1 133.18 165.28
  Q 137.26 161.38 139.47 156.29
  Q 141.73 151.20 141.86 145.33
  Q 141.87 144.75 142.45 144.74
  Q 153.99 144.45 162.36 136.14
  Q 162.76 135.74 163.00 136.25
  Q 166.28 143.15 163.64 151.95
  Z"
/>
<path fill="#e45d1c" d="
  M 90.76 140.20
  Q 89.04 157.61 102.51 164.84
  C 114.43 171.24 128.68 166.23 134.23 154.04
  Q 134.48 154.15 134.77 153.98
  Q 135.57 153.52 135.15 154.35
  Q 135.11 154.43 135.18 154.50
  Q 135.53 154.80 136.05 154.82
  Q 137.23 154.86 138.20 155.62
  Q 138.81 156.09 138.93 155.32
  Q 138.95 155.21 139.02 155.13
  Q 139.52 154.46 139.28 155.26
  Q 138.99 156.24 139.47 156.29
  Q 137.26 161.38 133.18 165.28
  A 0.42 0.41 -55.8 0 0 133.31 165.97
  Q 143.03 169.86 152.51 165.04
  Q 160.84 160.79 163.64 151.95
  L 214.70 152.25
  A 93.80 93.64 71.5 0 1 200.84 180.09
  A 93.89 93.86 -80.5 0 1 152.48 214.63
  A 93.90 93.88 -41.3 0 1 86.08 210.37
  A 93.84 93.82 -89.1 0 1 38.25 160.97
  A 93.67 93.41 28.7 0 1 32.48 141.30
  L 32.66 141.72
  A 0.42 0.40 -12.7 0 0 33.07 141.97
  Q 33.89 141.91 33.97 141.07
  A 1.04 1.03 -87.3 0 1 35.00 140.13
  L 90.76 140.20
  Z"
/>
</svg>
